0
SECTION
2
HEADER
9
$INSUNITS
70
4
9
$ACADVER
1
AC1014
9
$HANDSEED
5
FFFF
0
ENDSEC
0
SECTION
2
TABLES
0
TABLE
2
VPORT
5
8
100
AcDbSymbolTable
0
ENDTAB
0
TABLE
2
LTYPE
5
5
100
AcDbSymbolTable
0
LTYPE
5
14
100
AcDbSymbolTableRecord
100
AcDbLinetypeTableRecord
2
BYBLOCK
70
0
0
LTYPE
5
15
100
AcDbSymbolTableRecord
100
AcDbLinetypeTableRecord
2
BYLAYER
70
0
0
ENDTAB
0
TABLE
2
LAYER
5
2
100
AcDbSymbolTable
70
2
0
LAYER
5
50
100
AcDbSymbolTableRecord
100
AcDbLayerTableRecord
2
0
70
0
6
CONTINUOUS
0
ENDTAB
0
TABLE
2
STYLE
5
3
100
AcDbSymbolTable
70
1
0
STYLE
5
11
100
AcDbSymbolTableRecord
100
AcDbTextStyleTableRecord
2
STANDARD
70
0
0
ENDTAB
0
TABLE
2
VIEW
5
6
100
AcDbSymbolTable
70
0
0
ENDTAB
0
TABLE
2
UCS
5
7
100
AcDbSymbolTable
70
0
0
ENDTAB
0
TABLE
2
APPID
5
9
100
AcDbSymbolTable
70
2
0
APPID
5
12
100
AcDbSymbolTableRecord
100
AcDbRegAppTableRecord
2
ACAD
70
0
0
ENDTAB
0
TABLE
2
DIMSTYLE
5
A
100
AcDbSymbolTable
70
1
0
ENDTAB
0
TABLE
2
BLOCK_RECORD
5
1
100
AcDbSymbolTable
70
1
0
BLOCK_RECORD
5
1F
100
AcDbSymbolTableRecord
100
AcDbBlockTableRecord
2
*MODEL_SPACE
0
BLOCK_RECORD
5
1B
100
AcDbSymbolTableRecord
100
AcDbBlockTableRecord
2
*PAPER_SPACE
0
ENDTAB
0
ENDSEC
0
SECTION
2
BLOCKS
0
BLOCK
5
20
100
AcDbEntity
100
AcDbBlockBegin
2
*MODEL_SPACE
0
ENDBLK
5
21
100
AcDbEntity
100
AcDbBlockEnd
0
BLOCK
5
1C
100
AcDbEntity
100
AcDbBlockBegin
2
*PAPER_SPACE
0
ENDBLK
5
1D
100
AcDbEntity
100
AcDbBlockEnd
0
ENDSEC
0
SECTION
2
ENTITIES
0
LWPOLYLINE
5
100
100
AcDbEntity
8
0
100
AcDbPolyline
90
232
70
1
43
0.0
10
-4.4000000894069702
20
-170.09999808110297
10
-6.20000008940697
20
-170.09999808110297
10
-6.20000008940697
20
-172.59999808110297
10
-4.4000000894069702
20
-172.59999808110297
42
-0.41421356237309503
10
-3.9000000894069702
20
-173.09999808110297
10
-3.9000000894069702
20
-178.00000266729995
10
3.899999910593031
20
-178.00000266729995
10
3.8999999105930239
20
-173.09999808110297
42
-0.41421356237309503
10
4.3999999105930314
20
-172.59999808110297
10
6.1999999105930321
20
-172.59999808110297
10
6.1999999105930321
20
-170.09999808110297
10
4.3999999105930314
20
-170.09999808110297
42
-0.41421356237309503
10
3.899999910593031
20
-169.59999808110297
10
3.8999999105930239
20
-163.599998081103
42
-0.41421356237309503
10
4.3999999105930314
20
-163.09999808110297
10
6.1999999105930321
20
-163.09999808110297
10
6.1999999105930321
20
-160.59999808110297
10
4.3999999105930314
20
-160.59999808110297
42
-0.41421356237309503
10
3.899999910593031
20
-160.09999808110297
10
3.8999999105930239
20
-154.09999808110297
42
-0.41421356237309503
10
4.3999999105930314
20
-153.59999808110297
10
6.1999999105930321
20
-153.59999808110297
10
6.1999999105930321
20
-151.09999808110297
10
4.3999999105930314
20
-151.09999808110297
42
-0.41421356237309503
10
3.899999910593031
20
-150.59999808110294
10
3.8999999105930239
20
-144.59999808110297
42
-0.41421356237309503
10
4.3999999105930314
20
-144.09999808110297
10
6.1999999105930321
20
-144.09999808110297
10
6.1999999105930321
20
-141.59999808110297
10
4.3999999105930314
20
-141.59999808110297
42
-0.41421356237309503
10
3.899999910593031
20
-141.09999808110297
10
3.8999999105930243
20
-135.09999808110297
42
-0.41421356237309503
10
4.3999999105930314
20
-134.59999808110294
10
6.1999999105930321
20
-134.59999808110294
10
6.1999999105930321
20
-132.09999808110294
10
4.3999999105930323
20
-132.09999808110294
42
-0.41421356237309503
10
3.8999999105930323
20
-131.59999808110294
10
3.8999999105930252
20
-125.59999808110297
42
-0.41421356237309503
10
4.3999999105930323
20
-125.09999808110295
10
6.1999999105930321
20
-125.09999808110295
10
6.1999999105930321
20
-122.59999808110295
10
4.3999999105930323
20
-122.59999808110295
42
-0.41421356237309503
10
3.8999999105930323
20
-122.09999808110295
10
3.8999999105930252
20
-116.09999808110295
42
-0.41421356237309503
10
4.3999999105930323
20
-115.59999808110294
10
6.1999999105930321
20
-115.59999808110294
10
6.1999999105930321
20
-113.09999808110294
10
4.3999999105930323
20
-113.09999808110294
42
-0.41421356237309503
10
3.8999999105930323
20
-112.59999808110294
10
3.8999999105930252
20
-106.59999808110297
42
-0.41421356237309503
10
4.3999999105930323
20
-106.09999808110295
10
6.1999999105930321
20
-106.09999808110295
10
6.1999999105930321
20
-103.59999808110295
10
4.3999999105930323
20
-103.59999808110295
42
-0.41421356237309503
10
3.8999999105930323
20
-103.09999808110294
10
3.8999999105930252
20
-97.099998081102953
42
-0.41421356237309503
10
4.3999999105930323
20
-96.599998081102939
10
6.1999999105930321
20
-96.599998081102939
10
6.1999999105930321
20
-94.099998081102939
10
4.3999999105930323
20
-94.099998081102939
42
-0.41421356237309503
10
3.8999999105930323
20
-93.599998081102939
10
3.8999999105930252
20
-87.599998081102953
42
-0.41421356237309503
10
4.3999999105930323
20
-87.099998081102953
10
6.1999999105930321
20
-87.099998081102953
10
6.1999999105930321
20
-84.599998081102953
10
4.3999999105930323
20
-84.599998081102953
42
-0.41421356237309503
10
3.8999999105930323
20
-84.099998081102939
10
3.8999999105930341
20
-78.099998081102953
42
-0.41421356237309503
10
4.3999999105930323
20
-77.599998081102953
10
6.1999999105930321
20
-77.599998081102953
10
6.1999999105930321
20
-75.099998081102953
10
4.3999999105930323
20
-75.099998081102953
42
-0.41421356237309503
10
3.8999999105930323
20
-74.599998081102953
10
3.8999999105930341
20
-68.599998081102953
42
-0.41421356237309503
10
4.3999999105930323
20
-68.099998081102953
10
6.1999999105930321
20
-68.099998081102953
10
6.1999999105930321
20
-65.599998081102953
10
4.3999999105930323
20
-65.599998081102953
42
-0.41421356237309503
10
3.8999999105930323
20
-65.099998081102953
10
3.8999999105930341
20
-59.099998081102953
42
-0.41421356237309503
10
4.3999999105930323
20
-58.599998081102953
10
6.1999999105930321
20
-58.599998081102953
10
6.1999999105930321
20
-56.099998081102953
10
4.3999999105930323
20
-56.099998081102953
42
-0.41421356237309503
10
3.8999999105930323
20
-55.599998081102953
10
3.8999999105930341
20
-49.599998081102953
42
-0.41421356237309503
10
4.3999999105930323
20
-49.099998081102953
10
6.1999999105930321
20
-49.099998081102953
10
6.1999999105930321
20
-46.599998081102953
10
4.3999999105930323
20
-46.599998081102953
42
-0.41421356237309503
10
3.8999999105930323
20
-46.099998081102953
10
3.8999999105930341
20
-40.099998081102953
42
-0.41421356237309503
10
4.3999999105930323
20
-39.59999808110296
10
6.1999999105930321
20
-39.599998081102953
10
6.1999999105930321
20
-37.099998081102953
10
4.3999999105930323
20
-37.099998081102953
42
-0.41421356237309243
10
3.8999999105930327
20
-36.59999808110296
10
3.899999910593035
20
-30.599998081102946
42
-0.41421356237309243
10
4.3999999105930332
20
-30.099998081102953
10
6.1999999105930321
20
-30.099998081102953
10
6.1999999105930321
20
-27.599998081102953
10
4.3999999105930332
20
-27.599998081102953
42
-0.41421356237309764
10
3.8999999105930332
20
-27.099998081102949
10
3.899999910593035
20
-21.099998081102953
42
-0.41421356237309764
10
4.3999999105930332
20
-20.599998081102949
10
6.1999999105930321
20
-20.599998081102949
10
6.1999999105930321
20
-18.099998081102953
10
4.3999999105930332
20
-18.099998081102953
42
-0.41421356237309243
10
3.8999999105930332
20
-17.599998081102957
10
3.8999999105930327
20
-11.599998081102951
42
-0.41421356237309503
10
4.3999999105930332
20
-11.099998081102951
10
6.1999999105930321
20
-11.099998081102951
10
6.1999999105930321
20
-8.5999980811029513
10
4.3999999105930332
20
-8.5999980811029513
42
-0.41421356237309764
10
3.8999999105930332
20
-8.0999980811029459
10
3.8999999105930332
20
-2.0999980811029495
42
-0.41421356237309503
10
4.3999999105930332
20
-1.5999980811029495
10
6.1999999105930321
20
-1.5999980811029508
10
6.1999999105930321
20
0.90000191889704928
10
4.3999999105930332
20
0.90000191889704706
42
-0.41421356237309503
10
3.8999999105930332
20
1.4000019188970469
10
3.8999999105930332
20
6.4000000000000057
10
-3.900000089406968
20
6.4000000000000057
10
-3.900000089406968
20
1.4000019188970469
42
-0.41421356237309503
10
-4.4000000894069675
20
0.90000191889704695
10
-6.20000008940697
20
0.90000191889704928
10
-6.20000008940697
20
-1.5999980811029508
10
-4.4000000894069675
20
-1.5999980811029495
42
-0.41421356237309503
10
-3.900000089406968
20
-2.0999980811029495
10
-3.9000000894069675
20
-8.0999980811029459
42
-0.41421356237309764
10
-4.4000000894069675
20
-8.5999980811029513
10
-6.20000008940697
20
-8.5999980811029513
10
-6.20000008940697
20
-11.099998081102951
10
-4.4000000894069675
20
-11.099998081102951
42
-0.41421356237309503
10
-3.900000089406968
20
-11.599998081102951
10
-3.9000000894069675
20
-17.599998081102957
42
-0.41421356237309243
10
-4.4000000894069675
20
-18.099998081102953
10
-6.20000008940697
20
-18.099998081102953
10
-6.20000008940697
20
-20.599998081102949
10
-4.4000000894069675
20
-20.599998081102949
42
-0.41421356237309764
10
-3.900000089406968
20
-21.099998081102953
10
-3.9000000894069697
20
-27.099998081102949
42
-0.41421356237309764
10
-4.4000000894069675
20
-27.599998081102953
10
-6.20000008940697
20
-27.599998081102953
10
-6.20000008940697
20
-30.099998081102953
10
-4.4000000894069675
20
-30.099998081102953
42
-0.41421356237309243
10
-3.900000089406968
20
-30.599998081102946
10
-3.9000000894069697
20
-36.59999808110296
42
-0.41421356237309243
10
-4.4000000894069675
20
-37.099998081102953
10
-6.20000008940697
20
-37.099998081102953
10
-6.20000008940697
20
-39.599998081102953
10
-4.4000000894069693
20
-39.59999808110296
42
-0.41421356237309503
10
-3.9000000894069693
20
-40.099998081102953
10
-3.9000000894069711
20
-46.099998081102953
42
-0.41421356237309503
10
-4.4000000894069693
20
-46.599998081102953
10
-6.20000008940697
20
-46.599998081102953
10
-6.20000008940697
20
-49.099998081102953
10
-4.4000000894069693
20
-49.099998081102953
42
-0.41421356237309503
10
-3.9000000894069693
20
-49.599998081102953
10
-3.9000000894069711
20
-55.599998081102953
42
-0.41421356237309503
10
-4.4000000894069693
20
-56.099998081102953
10
-6.20000008940697
20
-56.099998081102953
10
-6.20000008940697
20
-58.599998081102953
10
-4.4000000894069693
20
-58.599998081102953
42
-0.41421356237309503
10
-3.9000000894069693
20
-59.099998081102953
10
-3.9000000894069711
20
-65.099998081102953
42
-0.41421356237309503
10
-4.4000000894069693
20
-65.599998081102953
10
-6.20000008940697
20
-65.599998081102953
10
-6.20000008940697
20
-68.099998081102953
10
-4.4000000894069693
20
-68.099998081102953
42
-0.41421356237309503
10
-3.9000000894069693
20
-68.599998081102953
10
-3.9000000894069711
20
-74.599998081102953
42
-0.41421356237309503
10
-4.4000000894069693
20
-75.099998081102953
10
-6.20000008940697
20
-75.099998081102953
10
-6.20000008940697
20
-77.599998081102953
10
-4.4000000894069693
20
-77.599998081102953
42
-0.41421356237309503
10
-3.9000000894069693
20
-78.099998081102953
10
-3.9000000894069622
20
-84.099998081102939
42
-0.41421356237309503
10
-4.4000000894069693
20
-84.599998081102953
10
-6.20000008940697
20
-84.599998081102953
10
-6.20000008940697
20
-87.099998081102953
10
-4.4000000894069693
20
-87.099998081102953
42
-0.41421356237309503
10
-3.9000000894069693
20
-87.599998081102953
10
-3.9000000894069622
20
-93.599998081102939
42
-0.41421356237309503
10
-4.4000000894069693
20
-94.099998081102939
10
-6.20000008940697
20
-94.099998081102939
10
-6.20000008940697
20
-96.599998081102939
10
-4.4000000894069693
20
-96.599998081102939
42
-0.41421356237309503
10
-3.9000000894069693
20
-97.099998081102953
10
-3.9000000894069622
20
-103.09999808110294
42
-0.41421356237309503
10
-4.4000000894069693
20
-103.59999808110295
10
-6.20000008940697
20
-103.59999808110295
10
-6.20000008940697
20
-106.09999808110295
10
-4.4000000894069693
20
-106.09999808110295
42
-0.41421356237309503
10
-3.9000000894069693
20
-106.59999808110297
10
-3.9000000894069622
20
-112.59999808110294
42
-0.41421356237309503
10
-4.4000000894069693
20
-113.09999808110294
10
-6.20000008940697
20
-113.09999808110294
10
-6.20000008940697
20
-115.59999808110294
10
-4.4000000894069693
20
-115.59999808110294
42
-0.41421356237309503
10
-3.9000000894069693
20
-116.09999808110295
10
-3.9000000894069622
20
-122.09999808110295
42
-0.41421356237309503
10
-4.4000000894069693
20
-122.59999808110295
10
-6.20000008940697
20
-122.59999808110295
10
-6.20000008940697
20
-125.09999808110295
10
-4.4000000894069693
20
-125.09999808110295
42
-0.41421356237309503
10
-3.9000000894069693
20
-125.59999808110297
10
-3.9000000894069622
20
-131.59999808110294
42
-0.41421356237309503
10
-4.4000000894069693
20
-132.09999808110294
10
-6.20000008940697
20
-132.09999808110294
10
-6.20000008940697
20
-134.59999808110294
10
-4.4000000894069702
20
-134.59999808110294
42
-0.41421356237309503
10
-3.9000000894069702
20
-135.09999808110297
10
-3.9000000894069631
20
-141.09999808110297
42
-0.41421356237309503
10
-4.4000000894069702
20
-141.59999808110297
10
-6.20000008940697
20
-141.59999808110297
10
-6.20000008940697
20
-144.09999808110297
10
-4.4000000894069702
20
-144.09999808110297
42
-0.41421356237309503
10
-3.9000000894069702
20
-144.59999808110297
10
-3.9000000894069631
20
-150.59999808110294
42
-0.41421356237309503
10
-4.4000000894069702
20
-151.09999808110297
10
-6.20000008940697
20
-151.09999808110297
10
-6.20000008940697
20
-153.59999808110297
10
-4.4000000894069702
20
-153.59999808110297
42
-0.41421356237309503
10
-3.9000000894069702
20
-154.09999808110297
10
-3.9000000894069631
20
-160.09999808110297
42
-0.41421356237309503
10
-4.4000000894069702
20
-160.59999808110297
10
-6.20000008940697
20
-160.59999808110297
10
-6.20000008940697
20
-163.09999808110297
10
-4.4000000894069702
20
-163.09999808110297
42
-0.41421356237309503
10
-3.9000000894069702
20
-163.599998081103
10
-3.9000000894069631
20
-169.59999808110297
42
-0.41421356237309503
0
CIRCLE
5
101
100
AcDbEntity
8
0
100
AcDbCircle
10
0
20
-152.34999808110297
30
0
40
2.6000000000000001
210
0
220
-0
230
1
0
CIRCLE
5
102
100
AcDbEntity
8
0
100
AcDbCircle
10
0
20
-142.84999808110297
30
0
40
2.6000000000000001
210
0
220
-0
230
1
0
CIRCLE
5
103
100
AcDbEntity
8
0
100
AcDbCircle
10
0
20
-114.34999808110297
30
0
40
2.6000000000000001
210
0
220
-0
230
1
0
CIRCLE
5
104
100
AcDbEntity
8
0
100
AcDbCircle
10
0
20
-104.84999808110297
30
0
40
2.6000000000000001
210
0
220
-0
230
1
0
CIRCLE
5
105
100
AcDbEntity
8
0
100
AcDbCircle
10
0
20
-76.349998081102967
30
0
40
2.6000000000000001
210
0
220
-0
230
1
0
CIRCLE
5
106
100
AcDbEntity
8
0
100
AcDbCircle
10
0
20
-66.849998081102967
30
0
40
2.6000000000000001
210
0
220
-0
230
1
0
CIRCLE
5
107
100
AcDbEntity
8
0
100
AcDbCircle
10
0
20
-38.34999808110296
30
0
40
2.6000000000000001
210
0
220
-0
230
1
0
CIRCLE
5
108
100
AcDbEntity
8
0
100
AcDbCircle
10
0
20
-28.84999808110296
30
0
40
2.6000000000000001
210
0
220
-0
230
1
0
CIRCLE
5
109
100
AcDbEntity
8
0
100
AcDbCircle
10
0
20
-0.34999808110295993
30
0
40
2.6000000000000001
210
0
220
-0
230
1
0
CIRCLE
5
110
100
AcDbEntity
8
0
100
AcDbCircle
10
0
20
-9.8499980811029602
30
0
40
2.6000000000000001
210
0
220
-0
230
1
0
CIRCLE
5
111
100
AcDbEntity
8
0
100
AcDbCircle
10
0
20
-19.34999808110296
30
0
40
2.6000000000000001
210
0
220
-0
230
1
0
CIRCLE
5
112
100
AcDbEntity
8
0
100
AcDbCircle
10
0
20
-47.84999808110296
30
0
40
2.6000000000000001
210
0
220
-0
230
1
0
CIRCLE
5
113
100
AcDbEntity
8
0
100
AcDbCircle
10
0
20
-57.34999808110296
30
0
40
2.6000000000000001
210
0
220
-0
230
1
0
CIRCLE
5
114
100
AcDbEntity
8
0
100
AcDbCircle
10
0
20
-85.849998081102967
30
0
40
2.6000000000000001
210
0
220
-0
230
1
0
CIRCLE
5
115
100
AcDbEntity
8
0
100
AcDbCircle
10
0
20
-95.349998081102967
30
0
40
2.6000000000000001
210
0
220
-0
230
1
0
CIRCLE
5
116
100
AcDbEntity
8
0
100
AcDbCircle
10
0
20
-123.84999808110297
30
0
40
2.6000000000000001
210
0
220
-0
230
1
0
CIRCLE
5
117
100
AcDbEntity
8
0
100
AcDbCircle
10
0
20
-133.34999808110297
30
0
40
2.6000000000000001
210
0
220
-0
230
1
0
CIRCLE
5
118
100
AcDbEntity
8
0
100
AcDbCircle
10
0
20
-161.84999808110297
30
0
40
2.6000000000000001
210
0
220
-0
230
1
0
CIRCLE
5
119
100
AcDbEntity
8
0
100
AcDbCircle
10
0
20
-171.34999808110297
30
0
40
2.6000000000000001
210
0
220
-0
230
1
0
ENDSEC
0
SECTION
2
OBJECTS
0
DICTIONARY
5
C
100
AcDbDictionary
3
ACAD_GROUP
350
D
3
ACAD_MLINESTYLE
350
17
0
DICTIONARY
5
D
100
AcDbDictionary
0
DICTIONARY
5
1A
330
C
100
AcDbDictionary
0
DICTIONARY
5
17
100
AcDbDictionary
0
ENDSEC
0
EOF
