0
SECTION
2
HEADER
9
$INSUNITS
70
4
9
$ACADVER
1
AC1014
9
$HANDSEED
5
FFFF
0
ENDSEC
0
SECTION
2
TABLES
0
TABLE
2
VPORT
5
8
100
AcDbSymbolTable
0
ENDTAB
0
TABLE
2
LTYPE
5
5
100
AcDbSymbolTable
0
LTYPE
5
14
100
AcDbSymbolTableRecord
100
AcDbLinetypeTableRecord
2
BYBLOCK
70
0
0
LTYPE
5
15
100
AcDbSymbolTableRecord
100
AcDbLinetypeTableRecord
2
BYLAYER
70
0
0
ENDTAB
0
TABLE
2
LAYER
5
2
100
AcDbSymbolTable
70
2
0
LAYER
5
50
100
AcDbSymbolTableRecord
100
AcDbLayerTableRecord
2
0
70
0
6
CONTINUOUS
0
ENDTAB
0
TABLE
2
STYLE
5
3
100
AcDbSymbolTable
70
1
0
STYLE
5
11
100
AcDbSymbolTableRecord
100
AcDbTextStyleTableRecord
2
STANDARD
70
0
0
ENDTAB
0
TABLE
2
VIEW
5
6
100
AcDbSymbolTable
70
0
0
ENDTAB
0
TABLE
2
UCS
5
7
100
AcDbSymbolTable
70
0
0
ENDTAB
0
TABLE
2
APPID
5
9
100
AcDbSymbolTable
70
2
0
APPID
5
12
100
AcDbSymbolTableRecord
100
AcDbRegAppTableRecord
2
ACAD
70
0
0
ENDTAB
0
TABLE
2
DIMSTYLE
5
A
100
AcDbSymbolTable
70
1
0
ENDTAB
0
TABLE
2
BLOCK_RECORD
5
1
100
AcDbSymbolTable
70
1
0
BLOCK_RECORD
5
1F
100
AcDbSymbolTableRecord
100
AcDbBlockTableRecord
2
*MODEL_SPACE
0
BLOCK_RECORD
5
1B
100
AcDbSymbolTableRecord
100
AcDbBlockTableRecord
2
*PAPER_SPACE
0
ENDTAB
0
ENDSEC
0
SECTION
2
BLOCKS
0
BLOCK
5
20
100
AcDbEntity
100
AcDbBlockBegin
2
*MODEL_SPACE
0
ENDBLK
5
21
100
AcDbEntity
100
AcDbBlockEnd
0
BLOCK
5
1C
100
AcDbEntity
100
AcDbBlockBegin
2
*PAPER_SPACE
0
ENDBLK
5
1D
100
AcDbEntity
100
AcDbBlockEnd
0
ENDSEC
0
SECTION
2
ENTITIES
0
LWPOLYLINE
5
100
100
AcDbEntity
8
0
100
AcDbPolyline
90
4
70
1
43
0.0
10
2.500000074494197
20
-167.10000000000002
10
-2.5000000745058033
20
-167.10000000000002
10
-2.5000000745058024
20
-166.10000000000002
10
2.5000000744941966
20
-166.10000000000002
0
LWPOLYLINE
5
101
100
AcDbEntity
8
0
100
AcDbPolyline
90
4
70
1
43
0.0
10
2.500000074494197
20
-157.60000000000002
10
-2.5000000745058033
20
-157.60000000000002
10
-2.5000000745058024
20
-156.60000000000002
10
2.5000000744941966
20
-156.60000000000002
0
LWPOLYLINE
5
102
100
AcDbEntity
8
0
100
AcDbPolyline
90
4
70
1
43
0.0
10
2.500000074494197
20
-148.10000000000002
10
-2.5000000745058033
20
-148.10000000000002
10
-2.5000000745058024
20
-147.10000000000002
10
2.5000000744941966
20
-147.10000000000002
0
LWPOLYLINE
5
103
100
AcDbEntity
8
0
100
AcDbPolyline
90
4
70
1
43
0.0
10
2.500000074494197
20
-138.60000000000002
10
-2.5000000745058033
20
-138.60000000000002
10
-2.5000000745058024
20
-137.60000000000002
10
2.5000000744941966
20
-137.60000000000002
0
LWPOLYLINE
5
104
100
AcDbEntity
8
0
100
AcDbPolyline
90
4
70
1
43
0.0
10
2.500000074494197
20
-129.10000000000002
10
-2.5000000745058033
20
-129.10000000000002
10
-2.5000000745058024
20
-128.10000000000002
10
2.5000000744941966
20
-128.10000000000002
0
LWPOLYLINE
5
105
100
AcDbEntity
8
0
100
AcDbPolyline
90
4
70
1
43
0.0
10
2.500000074494197
20
-119.60000000000001
10
-2.5000000745058033
20
-119.60000000000001
10
-2.5000000745058024
20
-118.60000000000001
10
2.5000000744941966
20
-118.60000000000001
0
LWPOLYLINE
5
106
100
AcDbEntity
8
0
100
AcDbPolyline
90
4
70
1
43
0.0
10
2.500000074494197
20
-110.10000000000002
10
-2.5000000745058033
20
-110.10000000000002
10
-2.5000000745058024
20
-109.10000000000002
10
2.5000000744941966
20
-109.10000000000002
0
LWPOLYLINE
5
107
100
AcDbEntity
8
0
100
AcDbPolyline
90
4
70
1
43
0.0
10
2.500000074494197
20
-100.60000000000001
10
-2.5000000745058033
20
-100.60000000000001
10
-2.5000000745058024
20
-99.600000000000009
10
2.5000000744941966
20
-99.600000000000009
0
LWPOLYLINE
5
108
100
AcDbEntity
8
0
100
AcDbPolyline
90
4
70
1
43
0.0
10
2.500000074494197
20
-91.100000000000009
10
-2.5000000745058033
20
-91.100000000000009
10
-2.5000000745058024
20
-90.100000000000023
10
2.5000000744941966
20
-90.100000000000023
0
LWPOLYLINE
5
109
100
AcDbEntity
8
0
100
AcDbPolyline
90
4
70
1
43
0.0
10
2.500000074494197
20
-81.599999999999994
10
-2.5000000745058033
20
-81.599999999999994
10
-2.5000000745058024
20
-80.600000000000009
10
2.5000000744941966
20
-80.600000000000009
0
LWPOLYLINE
5
110
100
AcDbEntity
8
0
100
AcDbPolyline
90
4
70
1
43
0.0
10
2.500000074494197
20
-72.100000000000009
10
-2.5000000745058033
20
-72.100000000000009
10
-2.5000000745058024
20
-71.100000000000009
10
2.5000000744941966
20
-71.100000000000009
0
LWPOLYLINE
5
111
100
AcDbEntity
8
0
100
AcDbPolyline
90
4
70
1
43
0.0
10
2.500000074494197
20
-62.599999999999994
10
-2.5000000745058033
20
-62.599999999999994
10
-2.5000000745058024
20
-61.600000000000001
10
2.5000000744941966
20
-61.600000000000001
0
LWPOLYLINE
5
112
100
AcDbEntity
8
0
100
AcDbPolyline
90
4
70
1
43
0.0
10
2.500000074494197
20
-53.100000000000009
10
-2.5000000745058033
20
-53.100000000000009
10
-2.5000000745058024
20
-52.100000000000001
10
2.5000000744941966
20
-52.100000000000001
0
LWPOLYLINE
5
113
100
AcDbEntity
8
0
100
AcDbPolyline
90
4
70
1
43
0.0
10
2.500000074494197
20
-43.600000000000001
10
-2.5000000745058033
20
-43.600000000000001
10
-2.5000000745058024
20
-42.600000000000009
10
2.5000000744941966
20
-42.600000000000009
0
LWPOLYLINE
5
114
100
AcDbEntity
8
0
100
AcDbPolyline
90
4
70
1
43
0.0
10
2.500000074494197
20
-34.100000000000001
10
-2.5000000745058033
20
-34.100000000000001
10
-2.5000000745058024
20
-33.100000000000001
10
2.5000000744941966
20
-33.100000000000001
0
LWPOLYLINE
5
115
100
AcDbEntity
8
0
100
AcDbPolyline
90
4
70
1
43
0.0
10
2.500000074494197
20
-24.600000000000001
10
-2.5000000745058033
20
-24.600000000000001
10
-2.5000000745058024
20
-23.600000000000001
10
2.5000000744941966
20
-23.600000000000001
0
LWPOLYLINE
5
116
100
AcDbEntity
8
0
100
AcDbPolyline
90
4
70
1
43
0.0
10
2.500000074494197
20
-15.100000000000001
10
-2.5000000745058033
20
-15.100000000000001
10
-2.5000000745058024
20
-14.100000000000001
10
2.5000000744941966
20
-14.100000000000001
0
LWPOLYLINE
5
117
100
AcDbEntity
8
0
100
AcDbPolyline
90
8
70
1
43
0.0
10
7.7500000000000018
20
-173.10000000000002
10
7.7500000000000018
20
1.4000000000000057
42
0.41421356237309542
10
5.7500000000000018
20
3.4000000000000052
10
-5.7499999999999973
20
3.3999999999999986
42
0.41421356237309548
10
-7.7499999999999964
20
1.4000000000000048
10
-7.7499999999999964
20
-173.10000000000002
42
0.41421356237309687
10
-5.7499999999999973
20
-175.10000000000002
10
5.7500000000000018
20
-175.10000000000002
42
0.41421356237309664
0
CIRCLE
5
118
100
AcDbEntity
8
0
100
AcDbCircle
10
0
20
-171.34999808110297
30
0
40
2.5
210
0
220
-0
230
1
0
CIRCLE
5
119
100
AcDbEntity
8
0
100
AcDbCircle
10
0
20
-161.84999808110297
30
0
40
2.5
210
0
220
-0
230
1
0
CIRCLE
5
120
100
AcDbEntity
8
0
100
AcDbCircle
10
0
20
-152.34999808110297
30
0
40
2.5
210
0
220
-0
230
1
0
CIRCLE
5
121
100
AcDbEntity
8
0
100
AcDbCircle
10
0
20
-142.84999808110297
30
0
40
2.5
210
0
220
-0
230
1
0
CIRCLE
5
122
100
AcDbEntity
8
0
100
AcDbCircle
10
0
20
-133.34999808110297
30
0
40
2.5
210
0
220
-0
230
1
0
CIRCLE
5
123
100
AcDbEntity
8
0
100
AcDbCircle
10
0
20
-123.84999808110297
30
0
40
2.5
210
0
220
-0
230
1
0
CIRCLE
5
124
100
AcDbEntity
8
0
100
AcDbCircle
10
0
20
-114.34999808110297
30
0
40
2.5
210
0
220
-0
230
1
0
CIRCLE
5
125
100
AcDbEntity
8
0
100
AcDbCircle
10
0
20
-104.84999808110297
30
0
40
2.5
210
0
220
-0
230
1
0
CIRCLE
5
126
100
AcDbEntity
8
0
100
AcDbCircle
10
0
20
-95.349998081102967
30
0
40
2.5
210
0
220
-0
230
1
0
CIRCLE
5
127
100
AcDbEntity
8
0
100
AcDbCircle
10
0
20
-85.849998081102967
30
0
40
2.5
210
0
220
-0
230
1
0
CIRCLE
5
128
100
AcDbEntity
8
0
100
AcDbCircle
10
0
20
-76.349998081102967
30
0
40
2.5
210
0
220
-0
230
1
0
CIRCLE
5
129
100
AcDbEntity
8
0
100
AcDbCircle
10
0
20
-66.849998081102967
30
0
40
2.5
210
0
220
-0
230
1
0
CIRCLE
5
130
100
AcDbEntity
8
0
100
AcDbCircle
10
0
20
-57.34999808110296
30
0
40
2.5
210
0
220
-0
230
1
0
CIRCLE
5
131
100
AcDbEntity
8
0
100
AcDbCircle
10
0
20
-47.84999808110296
30
0
40
2.5
210
0
220
-0
230
1
0
CIRCLE
5
132
100
AcDbEntity
8
0
100
AcDbCircle
10
0
20
-38.34999808110296
30
0
40
2.5
210
0
220
-0
230
1
0
CIRCLE
5
133
100
AcDbEntity
8
0
100
AcDbCircle
10
0
20
-28.84999808110296
30
0
40
2.5
210
0
220
-0
230
1
0
CIRCLE
5
134
100
AcDbEntity
8
0
100
AcDbCircle
10
0
20
-19.349998081102964
30
0
40
2.5
210
0
220
-0
230
1
0
CIRCLE
5
135
100
AcDbEntity
8
0
100
AcDbCircle
10
0
20
-9.8499980811029619
30
0
40
2.5
210
0
220
-0
230
1
0
CIRCLE
5
136
100
AcDbEntity
8
0
100
AcDbCircle
10
0
20
-0.34999808110296127
30
0
40
2.5
210
0
220
-0
230
1
0
LWPOLYLINE
5
137
100
AcDbEntity
8
0
100
AcDbPolyline
90
4
70
1
43
0.0
10
2.500000074494197
20
-4.6000000000000005
10
2.500000074494197
20
-5.6000000000000005
10
-2.5000000745058033
20
-5.6000000000000005
10
-2.5000000745058024
20
-4.6000000000000005
0
ENDSEC
0
SECTION
2
OBJECTS
0
DICTIONARY
5
C
100
AcDbDictionary
3
ACAD_GROUP
350
D
3
ACAD_MLINESTYLE
350
17
0
DICTIONARY
5
D
100
AcDbDictionary
0
DICTIONARY
5
1A
330
C
100
AcDbDictionary
0
DICTIONARY
5
17
100
AcDbDictionary
0
ENDSEC
0
EOF
