0
SECTION
2
HEADER
9
$INSUNITS
70
4
9
$ACADVER
1
AC1014
9
$HANDSEED
5
FFFF
0
ENDSEC
0
SECTION
2
TABLES
0
TABLE
2
VPORT
5
8
100
AcDbSymbolTable
0
ENDTAB
0
TABLE
2
LTYPE
5
5
100
AcDbSymbolTable
0
LTYPE
5
14
100
AcDbSymbolTableRecord
100
AcDbLinetypeTableRecord
2
BYBLOCK
70
0
0
LTYPE
5
15
100
AcDbSymbolTableRecord
100
AcDbLinetypeTableRecord
2
BYLAYER
70
0
0
ENDTAB
0
TABLE
2
LAYER
5
2
100
AcDbSymbolTable
70
2
0
LAYER
5
50
100
AcDbSymbolTableRecord
100
AcDbLayerTableRecord
2
0
70
0
6
CONTINUOUS
0
ENDTAB
0
TABLE
2
STYLE
5
3
100
AcDbSymbolTable
70
1
0
STYLE
5
11
100
AcDbSymbolTableRecord
100
AcDbTextStyleTableRecord
2
STANDARD
70
0
0
ENDTAB
0
TABLE
2
VIEW
5
6
100
AcDbSymbolTable
70
0
0
ENDTAB
0
TABLE
2
UCS
5
7
100
AcDbSymbolTable
70
0
0
ENDTAB
0
TABLE
2
APPID
5
9
100
AcDbSymbolTable
70
2
0
APPID
5
12
100
AcDbSymbolTableRecord
100
AcDbRegAppTableRecord
2
ACAD
70
0
0
ENDTAB
0
TABLE
2
DIMSTYLE
5
A
100
AcDbSymbolTable
70
1
0
ENDTAB
0
TABLE
2
BLOCK_RECORD
5
1
100
AcDbSymbolTable
70
1
0
BLOCK_RECORD
5
1F
100
AcDbSymbolTableRecord
100
AcDbBlockTableRecord
2
*MODEL_SPACE
0
BLOCK_RECORD
5
1B
100
AcDbSymbolTableRecord
100
AcDbBlockTableRecord
2
*PAPER_SPACE
0
ENDTAB
0
ENDSEC
0
SECTION
2
BLOCKS
0
BLOCK
5
20
100
AcDbEntity
100
AcDbBlockBegin
2
*MODEL_SPACE
0
ENDBLK
5
21
100
AcDbEntity
100
AcDbBlockEnd
0
BLOCK
5
1C
100
AcDbEntity
100
AcDbBlockBegin
2
*PAPER_SPACE
0
ENDBLK
5
1D
100
AcDbEntity
100
AcDbBlockEnd
0
ENDSEC
0
SECTION
2
ENTITIES
0
LWPOLYLINE
5
100
100
AcDbEntity
8
0
100
AcDbPolyline
90
10
70
1
43
0.0
10
109.85220517784093
20
-12.767536595341733
10
109.85220517784093
20
-15.134203699109126
10
108.51887311607335
20
-15.134203699109126
10
108.51887311607335
20
-13.800869849202204
10
100.51887120872472
20
-13.800869849202204
10
100.51887120872472
20
-11.134203341481257
10
108.21887311607335
20
-11.134203341481266
42
-0.41421356237309503
10
108.51887311607335
20
-11.434203341481259
10
108.51887311607335
20
-12.467536595341731
10
109.55220517784093
20
-12.467536595341739
42
-0.41421356237309503
0
LWPOLYLINE
5
101
100
AcDbEntity
8
0
100
AcDbPolyline
90
104
70
1
43
0.0
10
97.85220231681798
20
-15.000000223517418
10
97.85220231681798
20
-9.8008700876207833
10
92.518869301376085
20
-9.8008700876207833
10
92.518869301376085
20
-15.000000223517418
10
91.185537239608507
20
-15.000000223517418
10
91.185537239608507
20
-13.800869849202204
10
89.852205177840929
20
-13.800869849202204
10
88.51887073188756
20
-13.800869849202204
10
88.51887073188756
20
-16.467537549016047
10
89.852205177840929
20
-16.46753754901605
10
89.852205177840929
20
-13.800869849202204
10
89.852205177840929
20
-9.800870087620785
10
88.51887073188756
20
-9.8008700876207833
10
87.485536285934202
20
-9.8008700876207833
42
0.41421356237309503
10
87.185536285934191
20
-10.100870087620784
10
87.185536285934191
20
-12.467536595341731
10
88.51887073188756
20
-12.467536595341731
10
88.51887073188756
20
-9.8008700876207833
10
88.51887073188756
20
-7.1342035798998369
10
87.185536285934191
20
-7.1342035798998369
10
87.185536285934191
20
-5.8008691339464677
10
83.185537716445666
20
-5.8008691339464686
10
83.185537716445666
20
-7.1342035798998378
10
81.852203270492296
20
-7.1342035798998378
10
81.852203270492296
20
-9.800870087620785
10
81.852203270492296
20
-12.467536595341732
10
83.185537716445666
20
-12.467536595341732
10
83.185537716445666
20
-10.100870087620786
42
0.41421356237309503
10
82.885537716445668
20
-9.800870087620785
10
81.852203270492296
20
-9.800870087620785
10
80.518871208724718
20
-9.800870087620785
10
80.518871208724718
20
-13.800869849202206
10
80.518871208724718
20
-16.46753754901605
10
81.852203270492296
20
-16.46753754901605
10
81.852203270492296
20
-13.800869849202206
10
80.518871208724718
20
-13.800869849202206
10
79.185536762771335
20
-13.800869849202206
10
79.185536762771335
20
-15.000000223517418
10
77.851869778213242
20
-15.000000223517418
10
77.851869778213242
20
-12.467536595341734
10
76.768536524352768
20
-12.467536595341739
42
-0.41421356237309503
10
76.518536524352768
20
-12.217536595341736
10
76.518536524352768
20
-11.13420334148126
10
75.435203270492295
20
-11.134203341481266
42
-0.41421356237309503
10
75.185203270492295
20
-10.884203341481262
10
75.185203270492295
20
-9.8008700876207868
10
71.185202912864426
20
-9.8008700876207868
10
71.185202912864426
20
-5.8008691339464713
10
65.851869301376084
20
-5.8008691339464713
10
65.851869301376084
20
-15.000000223517418
10
64.518869778213229
20
-15.000000223517418
10
64.518869778213229
20
-12.467536595341734
10
63.435536524352763
20
-12.467536595341739
42
-0.41421356237309503
10
63.185536524352763
20
-12.217536595341736
10
63.185536524352763
20
-11.13420334148126
10
62.102203270492289
20
-11.134203341481266
42
-0.41421356237309503
10
61.852203270492289
20
-10.884203341481262
10
61.852203270492289
20
-9.8008700876207868
10
57.852202912864421
20
-9.8008700876207868
10
57.852202912864421
20
-5.8008691339464713
10
52.518869301376078
20
-5.8008691339464713
10
52.518869301376078
20
-21.800870564457945
10
61.852203270492289
20
-21.800870564457945
10
61.852203270492289
20
-20.467537310597471
10
63.185536524352763
20
-20.467537310597471
10
63.185536524352763
20
-19.134204056736998
10
64.518869778213229
20
-19.134204056736998
10
64.518869778213229
20
-15.200000223517417
10
65.851869301376084
20
-15.200000223517417
10
65.851869301376084
20
-21.800870564457945
10
75.185203270492295
20
-21.800870564457945
10
75.185203270492295
20
-20.467537310597471
10
76.518536524352768
20
-20.467537310597471
10
76.518536524352768
20
-19.134204056736998
10
77.851869778213242
20
-19.134204056736998
10
77.851869778213242
20
-15.200000223517417
10
79.185536762771335
20
-15.200000223517417
10
79.185536762771349
20
-21.800870564457941
10
84.518869778213244
20
-21.800870564457941
10
84.518869778213244
20
-19.134204056736998
10
85.852204224166613
20
-19.134204056736994
10
85.852204224166613
20
-21.800870564457941
10
91.185537239608507
20
-21.800870564457941
10
91.185537239608507
20
-15.200000223517417
10
92.518869301376085
20
-15.200000223517417
10
92.518869301376085
20
-21.800870564457941
10
97.85220231681798
20
-21.800870564457941
10
97.85220231681798
20
-15.200000223517417
10
99.18553914695714
20
-15.200000223517417
10
99.18553914695714
20
-21.800870564457941
10
104.51887216239903
20
-21.800870564457941
10
104.51887216239903
20
-16.467537549016047
10
105.85220422416661
20
-16.467537549016047
10
105.85220422416661
20
-17.800869610783625
10
111.18553723960851
20
-17.800869610783625
10
111.18553723960851
20
-12.467536595341731
10
110.15220517784093
20
-12.467536595341722
42
-0.41421356237309503
10
109.85220517784093
20
-12.167536595341728
10
109.85220517784093
20
-11.134203341481257
10
108.81887311607335
20
-11.134203341481248
42
-0.41421356237309503
10
108.51887311607335
20
-10.834203341481254
10
108.51887311607335
20
-9.8008700876207833
10
99.18553914695714
20
-9.8008700876207833
10
99.18553914695714
20
-15.000000223517418
0
LWPOLYLINE
5
102
100
AcDbEntity
8
0
100
AcDbPolyline
90
4
70
1
43
0.0
10
96.518870255050402
20
-13.800869849202204
10
93.852201363143664
20
-13.800869849202204
10
93.852201363143664
20
-11.134203341481257
10
96.518870255050402
20
-11.134203341481257
0
LWPOLYLINE
5
103
100
AcDbEntity
8
0
100
AcDbPolyline
90
8
70
1
43
0.0
10
86.785536285934199
20
-9.800870087620785
10
83.585537716445657
20
-9.8008700876207797
42
-0.41421356237309503
10
83.28553771644566
20
-9.5008700876207861
10
83.28553771644566
20
-7.5342035798998381
42
-0.41421356237309503
10
83.585537716445657
20
-7.2342035798998383
10
86.785536285934199
20
-7.2342035798998445
42
-0.41421356237309503
10
87.085536285934197
20
-7.5342035798998381
10
87.085536285934197
20
-9.5008700876207861
42
-0.41421356237309503
0
LWPOLYLINE
5
104
100
AcDbEntity
8
0
100
AcDbPolyline
90
4
70
1
43
0.0
10
85.852204224166613
20
-16.46753754901605
10
84.518869778213244
20
-16.467537549016047
10
84.518869778213244
20
-13.800869849202204
10
85.852204224166613
20
-13.800869849202204
0
LWPOLYLINE
5
105
100
AcDbEntity
8
0
100
AcDbPolyline
90
4
70
1
43
0.0
10
72.5185361667249
20
-19.134204056736998
10
71.185202912864426
20
-19.134204056736998
10
71.185202912864426
20
-16.46753754901605
10
72.5185361667249
20
-16.46753754901605
0
LWPOLYLINE
5
106
100
AcDbEntity
8
0
100
AcDbPolyline
90
4
70
1
43
0.0
10
69.851869659003953
20
-9.8008700876207868
10
67.185202704248169
20
-9.8008700876207868
10
67.185202704248169
20
-7.1342035798998404
10
69.851869659003953
20
-7.1342035798998404
0
LWPOLYLINE
5
107
100
AcDbEntity
8
0
100
AcDbPolyline
90
10
70
1
43
0.0
10
76.518536524352768
20
-12.717536595341734
10
76.518536524352768
20
-15.134203699109129
10
75.185203270492295
20
-15.134203699109129
10
75.185203270492295
20
-13.800869849202208
10
71.185202912864426
20
-13.800869849202208
10
71.185202912864426
20
-11.13420334148126
10
74.935203270492281
20
-11.134203341481257
42
-0.41421356237309503
10
75.185203270492295
20
-11.38420334148126
10
75.185203270492295
20
-12.467536595341734
10
76.268536524352754
20
-12.467536595341731
42
-0.41421356237309503
0
LWPOLYLINE
5
108
100
AcDbEntity
8
0
100
AcDbPolyline
90
4
70
1
43
0.0
10
59.185536166724894
20
-19.134204056736998
10
57.852202912864421
20
-19.134204056736998
10
57.852202912864421
20
-16.46753754901605
10
59.185536166724894
20
-16.46753754901605
0
LWPOLYLINE
5
109
100
AcDbEntity
8
0
100
AcDbPolyline
90
4
70
1
43
0.0
10
56.518869659003947
20
-9.8008700876207868
10
53.852202704248164
20
-9.8008700876207868
10
53.852202704248164
20
-7.1342035798998404
10
56.518869659003947
20
-7.1342035798998404
0
LWPOLYLINE
5
110
100
AcDbEntity
8
0
100
AcDbPolyline
90
10
70
1
43
0.0
10
63.185536524352763
20
-12.717536595341734
10
63.185536524352763
20
-15.134203699109129
10
61.852203270492289
20
-15.134203699109129
10
61.852203270492289
20
-13.800869849202208
10
57.852202912864421
20
-13.800869849202208
10
57.852202912864421
20
-11.13420334148126
10
61.602203270492282
20
-11.134203341481257
42
-0.41421356237309503
10
61.852203270492289
20
-11.38420334148126
10
61.852203270492289
20
-12.467536595341734
10
62.935536524352756
20
-12.467536595341731
42
-0.41421356237309503
0
ENDSEC
0
SECTION
2
OBJECTS
0
DICTIONARY
5
C
100
AcDbDictionary
3
ACAD_GROUP
350
D
3
ACAD_MLINESTYLE
350
17
0
DICTIONARY
5
D
100
AcDbDictionary
0
DICTIONARY
5
1A
330
C
100
AcDbDictionary
0
DICTIONARY
5
17
100
AcDbDictionary
0
ENDSEC
0
EOF
